<svg width="64" height="64" viewBox="0 0 128 128" fill="none" xmlns="http://www.w3.org/2000/svg">
  <defs>
    <linearGradient id="g" x1="18" y1="10" x2="110" y2="118" gradientUnits="userSpaceOnUse">
      <stop stop-color="#4ca2ff"/>
      <stop offset="1" stop-color="#8b5cf6"/>
    </linearGradient>
    <filter id="s" x="-40" y="-40" width="208" height="208" filterUnits="userSpaceOnUse" color-interpolation-filters="sRGB">
      <feGaussianBlur stdDeviation="12" result="blur"/>
      <feColorMatrix in="blur" type="matrix" values="0 0 0 0 0.121569  0 0 0 0 0.509804  0 0 0 0 1  0 0 0 0.55 0" result="glow"/>
      <feMerge>
        <feMergeNode in="glow"/>
        <feMergeNode in="SourceGraphic"/>
      </feMerge>
    </filter>
  </defs>

  <rect x="10" y="10" width="108" height="108" rx="28" fill="url(#g)" filter="url(#s)"/>

  <path
    d="M64 34C62.4 34 61.2 35 60.6 36.4L41.5 81.9C40.8 83.7 42.1 85.7 44.1 85.7H52.2C53.5 85.7 54.7 84.9 55.2 83.7L58.1 76.5H69.9L72.8 83.7C73.3 84.9 74.5 85.7 75.8 85.7H83.9C85.9 85.7 87.2 83.7 86.5 81.9L67.4 36.4C66.8 35 65.6 34 64 34ZM60.9 67.3L64 59.7L67.1 67.3H60.9Z"
    fill="white"
    fill-opacity="0.96"
  />

  <circle cx="88" cy="40" r="4" fill="#ffffff" fill-opacity="0.95"/>
</svg>
